<svg xmlns="http://www.w3.org/2000/svg" viewBox="2212.638 695.421 918.988 341.5">
  <defs>
    <style>
      .cls-1 {
        font-size: 44px;
        font-family: Freight-SansBold, Freight;
        font-weight: 700;
      }

      .cls-10, .cls-2, .cls-7, .cls-8, .cls-9 {
        fill: none;
        stroke-linecap: round;
        stroke-linejoin: round;
        stroke-width: 2px;
      }

      .cls-2 {
        stroke: #3f4749;
      }

      .cls-10, .cls-11, .cls-12, .cls-13, .cls-14, .cls-2, .cls-3, .cls-4, .cls-5, .cls-6, .cls-7, .cls-8, .cls-9 {
        fill-rule: evenodd;
      }

      .cls-3 {
        fill: #fff;
      }

      .cls-4 {
        fill: #ededed;
      }

      .cls-5 {
        fill: #7fefd2;
      }

      .cls-6 {
        fill: #3f4749;
      }

      .cls-7 {
        stroke: #ff64bd;
      }

      .cls-8 {
        stroke: #22abff;
      }

      .cls-9 {
        stroke: #ffbd66;
      }

      .cls-10 {
        stroke: #fff;
      }

      .cls-11 {
        fill: #ffbd66;
      }

      .cls-12 {
        fill: #c4cbcc;
      }

      .cls-13 {
        fill: #ff64bd;
      }

      .cls-14 {
        fill: #d5dadb;
      }
    </style>
  </defs>
  <g id="Group_20" data-name="Group 20" transform="translate(1990)">
    <text id="Development" class="cls-1" transform="translate(818.453 736.63)"><tspan x="0" y="0">Development</tspan></text>
    <g id="Group_13" data-name="Group 13" transform="translate(223.638 696.421)">
      <g id="Group_2" data-name="Group 2" transform="translate(0)">
        <path id="Stroke-5" class="cls-2" d="M585,92h38.635" transform="translate(293.353 -63.544)"/>
        <path id="Fill-55" class="cls-3" d="M737.057,378.662H528.089v2.6A12.65,12.65,0,0,0,540.82,393.83H724.326a12.65,12.65,0,0,0,12.731-12.568Z" transform="translate(25.311 -139.892)"/>
        <path id="Stroke-56" class="cls-2" d="M737.057,378.662H528.089v2.6A12.65,12.65,0,0,0,540.82,393.83H724.326a12.65,12.65,0,0,0,12.731-12.568Z" transform="translate(25.311 -139.892)"/>
        <path id="Fill-57" class="cls-4" d="M643.243,386.246h44.194v-7.584H643.243Z" transform="translate(-7.456 -139.892)"/>
        <path id="Stroke-58" class="cls-2" d="M643.243,386.246h44.194v-7.584H643.243Z" transform="translate(-7.456 -139.892)"/>
        <path id="Fill-59" class="cls-3" d="M716.593,241.182H563.744a8.906,8.906,0,0,0-8.963,8.848v88.227H725.555V250.03a8.906,8.906,0,0,0-8.963-8.848" transform="translate(17.716 -99.486)"/>
        <path id="Stroke-60" class="cls-2" d="M716.593,241.182H563.744a8.906,8.906,0,0,0-8.963,8.848v88.227H725.555V250.03A8.906,8.906,0,0,0,716.593,241.182Z" transform="translate(17.716 -99.486)"/>
        <path id="Fill-61" class="cls-5" d="M567.054,333.2H720.267v-79.74H567.054Z" transform="translate(14.223 -103.094)"/>
        <path id="Stroke-62" class="cls-2" d="M567.054,333.2H720.267v-79.74H567.054Z" transform="translate(14.223 -103.094)"/>
        <path id="Fill-63" class="cls-5" d="M567.054,333.2H720.267v-79.74H567.054Z" transform="translate(14.223 -103.094)"/>
        <path id="Stroke-64" class="cls-2" d="M567.054,333.2H720.267v-79.74H567.054Z" transform="translate(14.223 -103.094)"/>
        <path id="Fill-65" class="cls-6" d="M691.916,326.131H625.846a5.268,5.268,0,0,1-5.3-5.233V277.635a5.267,5.267,0,0,1,5.3-5.232h66.071a5.267,5.267,0,0,1,5.3,5.232V320.9a5.268,5.268,0,0,1-5.3,5.233" transform="translate(-0.997 -108.662)"/>
        <path id="Stroke-66" class="cls-2" d="M691.916,326.131H625.846a5.268,5.268,0,0,1-5.3-5.233V277.635a5.267,5.267,0,0,1,5.3-5.232h66.071a5.267,5.267,0,0,1,5.3,5.232V320.9A5.268,5.268,0,0,1,691.916,326.131Z" transform="translate(-0.997 -108.662)"/>
        <path id="Fill-67" class="cls-4" d="M691.916,272.2H625.846a5.267,5.267,0,0,0-5.3,5.233v3.838h76.674v-3.838a5.267,5.267,0,0,0-5.3-5.233" transform="translate(-0.997 -108.602)"/>
        <path id="Stroke-68" class="cls-2" d="M691.916,272.2H625.846a5.267,5.267,0,0,0-5.3,5.233v3.838h76.674v-3.838A5.267,5.267,0,0,0,691.916,272.2Z" transform="translate(-0.997 -108.602)"/>
        <path id="Stroke-69" class="cls-7" d="M666.734,318.97h0a2.959,2.959,0,0,1-2.977-2.939v-3.778l-3.186-1.469,3.186-1.47v-3.778a2.959,2.959,0,0,1,2.977-2.939" transform="translate(-12.386 -117.536)"/>
        <path id="Stroke-70" class="cls-7" d="M678.852,318.97h0a2.959,2.959,0,0,0,2.977-2.939v-3.778l3.186-1.469-3.186-1.47v-3.778a2.959,2.959,0,0,0-2.977-2.939" transform="translate(-17.588 -117.536)"/>
        <path id="Stroke-71" class="cls-8" d="M653.657,325.786H643.12" transform="translate(-7.421 -124.351)"/>
        <path id="Stroke-72" class="cls-9" d="M689.972,318.935l10.849-16.459" transform="translate(-20.752 -117.5)"/>
        <path id="Fill-73" class="cls-6" d="M671.98,246.688a1.537,1.537,0,1,1,1.537,1.517,1.527,1.527,0,0,1-1.537-1.517" transform="translate(-15.633 -100.659)"/>
        <path id="Stroke-74" class="cls-2" d="M671.98,246.688a1.537,1.537,0,1,1,1.537,1.517A1.527,1.527,0,0,1,671.98,246.688Z" transform="translate(-15.633 -100.659)"/>
        <path id="Stroke-75" class="cls-2" d="M394.606,400.143H745.391" transform="translate(63.293 -146.205)"/>
        <path id="Stroke-76" class="cls-2" d="M897.271,400.143h23.2" transform="translate(-79.738 -146.205)"/>
        <path id="Stroke-78" class="cls-10" d="M91.035,304.453h74.659" transform="translate(149.673 -118.082)"/>
        <path id="Stroke-79" class="cls-10" d="M405.63,40.507h23.736" transform="translate(60.156 -40.508)"/>
        <path id="Stroke-81" class="cls-10" d="M430.158,480.717h23.736" transform="translate(53.177 -169.886)"/>
        <path id="Stroke-82" class="cls-2" d="M966.227,400.143h23.2" transform="translate(-99.36 -146.205)"/>
        <path id="Stroke-90" class="cls-2" d="M330.154,252.289a21.388,21.388,0,0,0-4.942-.575,21.051,21.051,0,0,0-20.392,15.5,13.824,13.824,0,0,0-5.05-.96,13.55,13.55,0,1,0,0,27.1h11.241" transform="translate(94.184 -102.582)"/>
        <path id="Stroke-91" class="cls-2" d="M362.466,262.465a21.077,21.077,0,0,0-8.446-7.619" transform="translate(74.841 -103.502)"/>
        <path id="Stroke-92" class="cls-2" d="M381.437,278.744a11.588,11.588,0,0,0-11.732-1.492,20.492,20.492,0,0,0-1.327-6.44" transform="translate(70.756 -108.194)"/>
        <path id="Stroke-93" class="cls-2" d="M340.682,305.964H366.43a11.408,11.408,0,0,0,11.481-11.333" transform="translate(78.637 -115.195)"/>
        <path id="Stroke-94" class="cls-2" d="M326.354,310.681h6.379" transform="translate(82.714 -119.912)"/>
        <path id="Fill-108" class="cls-3" d="M177,420.864V358.935a11.342,11.342,0,0,1,11.414-11.268H292.741a11.342,11.342,0,0,1,11.414,11.268v61.929a11.342,11.342,0,0,1-11.414,11.268H188.412A11.341,11.341,0,0,1,177,420.864" transform="translate(125.213 -130.782)"/>
        <path id="Stroke-109" class="cls-2" d="M177,420.864V358.935a11.342,11.342,0,0,1,11.414-11.268H292.741a11.342,11.342,0,0,1,11.414,11.268v61.929a11.342,11.342,0,0,1-11.414,11.268H188.412A11.341,11.341,0,0,1,177,420.864Z" transform="translate(125.213 -130.782)"/>
        <path id="Fill-110" class="cls-5" d="M200.912,428.708H293.85V355.975H200.912Z" transform="translate(118.408 -133.224)"/>
        <path id="Stroke-111" class="cls-2" d="M200.912,428.708H293.85V355.975H200.912Z" transform="translate(118.408 -133.224)"/>
        <path id="Fill-112" class="cls-4" d="M188.34,401.991a3.875,3.875,0,1,1-3.926,3.874,3.9,3.9,0,0,1,3.926-3.874" transform="translate(123.102 -146.748)"/>
        <path id="Stroke-113" class="cls-2" d="M188.34,401.991a3.875,3.875,0,1,1-3.926,3.874A3.9,3.9,0,0,1,188.34,401.991Z" transform="translate(123.102 -146.748)"/>
        <path id="Fill-114" class="cls-6" d="M341.612,402.173a2.1,2.1,0,1,1-2.129,2.1,2.116,2.116,0,0,1,2.129-2.1" transform="translate(78.978 -146.802)"/>
        <path id="Stroke-115" class="cls-2" d="M341.612,402.173a2.1,2.1,0,1,1-2.129,2.1A2.116,2.116,0,0,1,341.612,402.173Z" transform="translate(78.978 -146.802)"/>
        <path id="Fill-116" class="cls-6" d="M341.958,415.521a1.243,1.243,0,1,1-1.259,1.243,1.251,1.251,0,0,1,1.259-1.243" transform="translate(78.632 -150.725)"/>
        <path id="Stroke-117" class="cls-2" d="M341.958,415.521a1.243,1.243,0,1,1-1.259,1.243A1.251,1.251,0,0,1,341.958,415.521Z" transform="translate(78.632 -150.725)"/>
        <path id="Fill-118" class="cls-6" d="M341.958,422.832a1.243,1.243,0,1,1-1.259,1.243,1.251,1.251,0,0,1,1.259-1.243" transform="translate(78.632 -152.873)"/>
        <path id="Stroke-119" class="cls-2" d="M341.958,422.832a1.243,1.243,0,1,1-1.259,1.243A1.251,1.251,0,0,1,341.958,422.832Z" transform="translate(78.632 -152.873)"/>
        <path id="Stroke-120" class="cls-2" d="M282.755,400.14l-10.5,10.363" transform="translate(98.107 -146.204)"/>
        <path id="Stroke-121" class="cls-2" d="M255.291,400.14l-10.5,10.363" transform="translate(105.921 -146.204)"/>
        <path id="Stroke-122" class="cls-2" d="M271.528,394.325,252.713,412.9" transform="translate(103.668 -144.495)"/>
        <path id="Stroke-123" class="cls-2" d="M-245.406,400.143H9.712" transform="translate(245.406 -146.205)"/>
        <path id="Stroke-126" class="cls-2" d="M820.167,251.534a4.68,4.68,0,1,1,4.68,4.62A4.651,4.651,0,0,1,820.167,251.534Z" transform="translate(-57.799 -101.171)"/>
        <path id="Stroke-127" class="cls-2" d="M98.1,243.249a4.68,4.68,0,1,1,4.68,4.62A4.65,4.65,0,0,1,98.1,243.249Z" transform="translate(147.664 -98.736)"/>
        <path id="Stroke-128" class="cls-10" d="M252.926,58.183a4.68,4.68,0,1,1,4.68,4.62A4.65,4.65,0,0,1,252.926,58.183Z" transform="translate(103.607 -44.345)"/>
        <path id="Stroke-129" class="cls-10" d="M862.529,465.366a4.68,4.68,0,1,1,4.679,4.62A4.649,4.649,0,0,1,862.529,465.366Z" transform="translate(-69.853 -164.016)"/>
        <path id="Stroke-130" class="cls-10" d="M59.993,465.366a4.68,4.68,0,1,1,4.68,4.62A4.65,4.65,0,0,1,59.993,465.366Z" transform="translate(158.506 -164.016)"/>
        <path id="Stroke-136" class="cls-2" d="M853.9,151.964l-5.619,5.547" transform="translate(-65.798 -73.265)"/>
        <path id="Stroke-137" class="cls-2" d="M853.9,157.512l-5.619-5.547" transform="translate(-65.798 -73.265)"/>
        <path id="Stroke-138" class="cls-2" d="M154.419,513.462l-5.619,5.547" transform="translate(133.236 -179.51)"/>
        <path id="Stroke-139" class="cls-2" d="M154.419,519.009l-5.619-5.547" transform="translate(133.236 -179.51)"/>
        <path id="Stroke-140" class="cls-2" d="M112.869,396.215l-5.62,5.548" transform="translate(145.059 -145.051)"/>
        <path id="Stroke-141" class="cls-2" d="M112.869,401.763l-5.62-5.548" transform="translate(145.059 -145.051)"/>
        <path id="Fill-142" class="cls-11" d="M447.385,351.86l-11.335-1.985,14.357-79.914,11.336,1.985Z" transform="translate(51.5 -107.944)"/>
        <path id="Stroke-143" class="cls-2" d="M447.385,351.86l-11.335-1.985,14.357-79.914,11.336,1.985Z" transform="translate(51.5 -107.944)"/>
        <path id="Stroke-144" class="cls-2" d="M455.056,275.953l5.1.894" transform="translate(46.092 -109.705)"/>
        <path id="Stroke-145" class="cls-2" d="M453.934,282.278l2.552.446" transform="translate(46.411 -111.564)"/>
        <path id="Stroke-146" class="cls-2" d="M452.813,288.6l2.552.446" transform="translate(46.73 -113.423)"/>
        <path id="Stroke-147" class="cls-2" d="M451.691,294.927l2.552.447" transform="translate(47.05 -115.282)"/>
        <path id="Stroke-148" class="cls-2" d="M450.57,301.251l5.1.894" transform="translate(47.369 -117.14)"/>
        <path id="Stroke-149" class="cls-2" d="M449.448,307.576l2.552.447" transform="translate(47.688 -118.999)"/>
        <path id="Stroke-150" class="cls-2" d="M448.327,313.9l2.552.446" transform="translate(48.007 -120.858)"/>
        <path id="Stroke-151" class="cls-2" d="M447.205,320.225l2.552.446" transform="translate(48.326 -122.717)"/>
        <path id="Stroke-152" class="cls-2" d="M446.084,326.55l5.1.894" transform="translate(48.645 -124.576)"/>
        <path id="Stroke-153" class="cls-2" d="M444.962,332.874l2.552.447" transform="translate(48.964 -126.435)"/>
        <path id="Stroke-154" class="cls-2" d="M443.841,339.2l2.551.447" transform="translate(49.283 -128.293)"/>
        <path id="Stroke-155" class="cls-2" d="M442.719,345.524l2.552.446" transform="translate(49.602 -130.152)"/>
        <path id="Stroke-156" class="cls-2" d="M441.6,351.848l5.1.894" transform="translate(49.921 -132.011)"/>
        <path id="Stroke-157" class="cls-2" d="M440.476,358.173l2.552.447" transform="translate(50.241 -133.87)"/>
        <path id="Stroke-158" class="cls-2" d="M439.355,364.5l2.552.447" transform="translate(50.56 -135.729)"/>
        <path id="Stroke-159" class="cls-2" d="M438.234,370.822l2.552.447" transform="translate(50.879 -137.587)"/>
        <path id="Stroke-160" class="cls-2" d="M437.112,377.147l5.1.894" transform="translate(51.198 -139.446)"/>
        <path id="Fill-161" class="cls-5" d="M446.08,362.994l-6.143-2.131,17.32-48.654,6.144,2.131Z" transform="translate(50.394 -120.361)"/>
        <path id="Stroke-162" class="cls-2" d="M446.08,362.994l-6.143-2.131,17.32-48.654,6.144,2.131Z" transform="translate(50.394 -120.361)"/>
        <path id="Fill-163" class="cls-11" d="M464.145,309.929l5.4-5.476.743,7.607Z" transform="translate(43.506 -118.082)"/>
        <path id="Stroke-164" class="cls-2" d="M464.145,309.929l5.4-5.476.743,7.607Z" transform="translate(43.506 -118.082)"/>
        <path id="Fill-165" class="cls-6" d="M468.71,306.617l2.428.842-.293-3.006Z" transform="translate(42.207 -118.081)"/>
        <path id="Stroke-166" class="cls-2" d="M468.71,306.617l2.428.842-.293-3.006Z" transform="translate(42.207 -118.081)"/>
        <path id="Stroke-167" class="cls-2" d="M444.229,362.372l17.321-48.654" transform="translate(49.173 -120.804)"/>
        <path id="Fill-168" class="cls-12" d="M444.716,385.985l-6.144-2.131.976-2.74,6.143,2.131Z" transform="translate(50.782 -140.612)"/>
        <path id="Stroke-169" class="cls-2" d="M444.716,385.985l-6.144-2.131.976-2.74,6.143,2.131Z" transform="translate(50.782 -140.612)"/>
        <path id="Fill-170" class="cls-4" d="M442.14,392.3,436,390.173l1.844-5.179,6.143,2.131Z" transform="translate(51.516 -141.753)"/>
        <path id="Stroke-171" class="cls-2" d="M442.14,392.3,436,390.173l1.844-5.179,6.143,2.131Z" transform="translate(51.516 -141.753)"/>
        <path id="Fill-172" class="cls-13" d="M428.8,311.9l6.484-.595,4.827,51.351-6.483.594Z" transform="translate(53.563 -120.095)"/>
        <path id="Stroke-173" class="cls-2" d="M428.8,311.9l6.484-.595,4.827,51.351-6.483.594Z" transform="translate(53.563 -120.095)"/>
        <path id="Fill-174" class="cls-11" d="M442.03,384.029l-2.593,7.2-3.891-6.608Z" transform="translate(51.644 -141.469)"/>
        <path id="Stroke-175" class="cls-2" d="M442.03,384.029l-2.593,7.2-3.891-6.608Z" transform="translate(51.644 -141.469)"/>
        <path id="Fill-176" class="cls-6" d="M441.4,390.2l-2.562.235,1.537,2.611Z" transform="translate(50.707 -143.282)"/>
        <path id="Stroke-177" class="cls-2" d="M441.4,390.2l-2.562.235,1.537,2.611Z" transform="translate(50.707 -143.282)"/>
        <path id="Stroke-178" class="cls-2" d="M433.33,311.726l4.828,51.351" transform="translate(52.274 -120.219)"/>
        <path id="Fill-179" class="cls-12" d="M428.419,307.8l6.484-.595.271,2.892-6.483.594Z" transform="translate(53.672 -118.891)"/>
        <path id="Stroke-180" class="cls-2" d="M428.419,307.8l6.484-.595.271,2.892-6.483.594Z" transform="translate(53.672 -118.891)"/>
        <path id="Fill-181" class="cls-4" d="M427.7,300.063l6.484-.595.514,5.466-6.484.594Z" transform="translate(53.876 -116.616)"/>
        <path id="Stroke-182" class="cls-2" d="M427.7,300.063l6.484-.595.514,5.466-6.484.594Z" transform="translate(53.876 -116.616)"/>
        <path id="Fill-183" class="cls-12" d="M455.574,352.906H427.331v28.546a4.84,4.84,0,0,0,4.871,4.808h18.5a4.84,4.84,0,0,0,4.871-4.808Z" transform="translate(53.981 -132.322)"/>
        <path id="Stroke-184" class="cls-2" d="M455.574,352.906H427.331v28.546a4.84,4.84,0,0,0,4.871,4.808h18.5a4.84,4.84,0,0,0,4.871-4.808Z" transform="translate(53.981 -132.322)"/>
        <path id="Fill-185" class="cls-14" d="M424.979,350.2h31.609v-6.5H424.979Z" transform="translate(54.651 -129.616)"/>
        <path id="Stroke-186" class="cls-2" d="M424.979,350.2h31.609v-6.5H424.979Z" transform="translate(54.651 -129.616)"/>
        <path id="Stroke-187" class="cls-2" d="M432.482,353.114v12.951" transform="translate(52.515 -132.383)"/>
        <path id="Stroke-188" class="cls-2" d="M461.285,373.452v3.5" transform="translate(44.32 -138.361)"/>
        <path id="Stroke-189" class="cls-2" d="M461.285,382.623v3.5" transform="translate(44.32 -141.056)"/>
        <path id="Stroke-221" class="cls-2" d="M897.378,302.125a9.8,9.8,0,0,0,8.846,5.52h75.292a14.7,14.7,0,1,0,0-29.392,14.991,14.991,0,0,0-5.478,1.04,22.917,22.917,0,0,0-44.968,4.8,12.548,12.548,0,0,0-4.995-1.037,12.421,12.421,0,0,0-12.024,9.138,9.8,9.8,0,0,0-7.828-3.878" transform="translate(-79.769 -105.746)"/>
        <path id="Stroke-222" class="cls-2" d="M901.254,300.671a9.646,9.646,0,0,0-5.193,8.534" transform="translate(-79.394 -116.97)"/>
      </g>
    </g>
  </g>
</svg>
