<?xml version="1.0" encoding="utf-8"?>
<!-- Generator: Adobe Illustrator 21.0.1, SVG Export Plug-In . SVG Version: 6.00 Build 0)  -->
<svg version="1.1" id="Layer_1" xmlns="http://www.w3.org/2000/svg" xmlns:xlink="http://www.w3.org/1999/xlink" x="0px" y="0px"
	 viewBox="0 0 918.9 262.7" style="enable-background:new 0 0 918.9 262.7;" xml:space="preserve">
<style type="text/css">
	.st0{font-family:'Freight-SansBold';}
	.st1{font-size:44px;}
	.st2{fill:none;stroke:#3F4749;stroke-width:2;stroke-linecap:round;stroke-linejoin:round;}
	.st3{fill:#C4CBCC;}
	.st4{fill:#EDEDED;}
	.st5{fill:#FFFFFF;}
	.st6{fill:#545C5E;}
	.st7{fill:#7FEFD2;}
	.st8{fill:#D5DADB;}
	.st9{fill:none;stroke:#FFFFFF;stroke-width:2;stroke-linecap:round;stroke-linejoin:round;}
	.st10{fill:#3F4749;}
	.st11{fill:#22ABFF;}
	.st12{fill:#FFBD66;}
	.st13{fill:#FF64BD;}
</style>
<text transform="matrix(1 0 0 1 58.7861 35)" class="st0 st1">Design</text>
<path id="Stroke-1" class="st2" d="M343.8,139.3h574.1"/>
<path id="Stroke-4" class="st2" d="M592.8,217.6h37"/>
<path id="Stroke-6" class="st2" d="M478.5,222.3h37"/>
<path id="Stroke-7" class="st2" d="M450.5,222.3h14.4"/>
<path id="Stroke-8" class="st2" d="M551.9,133.6h358.3"/>
<path id="Stroke-11" class="st2" d="M1,241.9h291.2"/>
<path id="Fill-17" class="st3" d="M740.8,177.7c-11.7-2.6-23.9-2.6-35.6,0h-7v4.5c0,3.6,11.1,6.5,24.8,6.5s24.8-2.9,24.8-6.5v-4.5
	H740.8z"/>
<path id="Stroke-19" class="st2" d="M740.8,177.7c-11.7-2.6-23.9-2.6-35.6,0h-7v4.5c0,3.6,11.1,6.5,24.8,6.5s24.8-2.9,24.8-6.5v-4.5
	H740.8z"/>
<path id="Fill-21" class="st4" d="M698.2,177.7c0-3.6,11.1-6.5,24.8-6.5s24.8,2.9,24.8,6.5s-11.1,6.5-24.8,6.5
	S698.2,181.3,698.2,177.7"/>
<path id="Stroke-23" class="st2" d="M698.2,177.7c0-3.6,11.1-6.5,24.8-6.5s24.8,2.9,24.8,6.5s-11.1,6.5-24.8,6.5
	S698.2,181.3,698.2,177.7z"/>
<path id="Fill-25" class="st5" d="M642.3,148.8c0.1,10.2,8.4,18.4,18.5,18.3h124.4c10.2,0.1,18.5-8.1,18.5-18.3v-0.4H642.3V148.8z"
	/>
<path id="Stroke-27" class="st2" d="M642.3,148.8c0.1,10.2,8.4,18.4,18.5,18.3h124.4c10.2,0.1,18.5-8.1,18.5-18.3v-0.4H642.3V148.8z
	"/>
<path id="Fill-29" class="st6" d="M785.2,54.7H660.8c-10.2-0.1-18.5,8.1-18.5,18.3v75.4h161.4V73C803.7,62.8,795.4,54.6,785.2,54.7"
	/>
<path id="Stroke-31" class="st2" d="M785.2,54.7H660.8c-10.2-0.1-18.5,8.1-18.5,18.3v75.4h161.4V73
	C803.7,62.8,795.4,54.6,785.2,54.7z"/>
<path id="Fill-33" class="st7" d="M650.7,148.4V73c0-5.6,4.6-10,10.1-10h124.4c5.6,0,10.1,4.4,10.1,10v75.4L650.7,148.4z"/>
<path id="Stroke-35" class="st2" d="M650.7,148.4V73c0-5.6,4.6-10,10.1-10h124.4c5.6,0,10.1,4.4,10.1,10v75.4L650.7,148.4z"/>
<path id="Fill-37" class="st7" d="M650.7,148.4V73c0-5.6,4.6-10,10.1-10h124.4c5.6,0,10.1,4.4,10.1,10v75.4L650.7,148.4z"/>
<path id="Stroke-39" class="st2" d="M650.7,148.4V73c0-5.6,4.6-10,10.1-10h124.4c5.6,0,10.1,4.4,10.1,10v75.4L650.7,148.4z"/>
<path id="Fill-41" class="st8" d="M719.8,157.3c0-1.8,1.4-3.2,3.1-3.2c1.8,0,3.2,1.4,3.2,3.1c0,1.8-1.4,3.2-3.1,3.2c0,0,0,0,0,0
	C721.2,160.5,719.8,159.1,719.8,157.3"/>
<path id="Stroke-43" class="st2" d="M719.8,157.3c0-1.8,1.4-3.2,3.1-3.2c1.8,0,3.2,1.4,3.2,3.1c0,1.8-1.4,3.2-3.1,3.2c0,0,0,0,0,0
	C721.2,160.5,719.8,159.1,719.8,157.3z"/>
<path id="Stroke-45" class="st2" d="M706.2,99.9l11.7-11.5"/>
<path id="Stroke-47" class="st2" d="M728.1,99.9l11.7-11.5"/>
<path id="Stroke-49" class="st2" d="M712.5,104.5l21-20.7"/>
<path id="Fill-51" class="st4" d="M710.2,177.7h25.5v-10.6h-25.5V177.7z"/>
<path id="Stroke-53" class="st2" d="M710.2,177.7h25.5v-10.6h-25.5V177.7z"/>
<path id="Stroke-54" class="st2" d="M336.4,173.9c0-2.5,1.9-4.5,4.4-4.5c2.5,0,4.5,1.9,4.5,4.4c0,2.5-1.9,4.5-4.4,4.5c0,0,0,0-0.1,0
	C338.4,178.4,336.4,176.4,336.4,173.9C336.4,173.9,336.4,173.9,336.4,173.9z"/>
<path id="Stroke-77" class="st9" d="M827.5,88.4h22.2"/>
<path id="Stroke-80" class="st9" d="M512,213.6h22.7"/>
<path id="Stroke-83" class="st2" d="M348.7,129.2H381c7.9,0.1,14.3-6.2,14.4-14c0.1-7.9-6.2-14.3-14-14.4c-0.1,0-0.2,0-0.3,0
	c-2,0-4,0.4-5.8,1.2c-0.8-14.6-13.4-25.8-28-25c-11.3,0.6-21,8.4-24,19.4c-2-0.8-4.2-1.2-6.3-1.2c-9.4-0.2-17.2,7.2-17.4,16.6
	s7.2,17.2,16.6,17.4c0.3,0,0.6,0,0.9,0H331"/>
<path id="Stroke-84" class="st2" d="M335.9,129.2h8"/>
<path id="Stroke-85" class="st2" d="M520,48.4c1.7-0.4,3.4-0.6,5.1-0.6c9.9,0,18.6,6.6,21.2,16.1c1.7-0.7,3.5-1,5.3-1
	c7.8-0.1,14.1,6.2,14.2,14c0.1,7.8-6.2,14.1-14,14.2c-0.1,0-0.2,0-0.2,0h-11.7"/>
<path id="Stroke-86" class="st2" d="M506.5,58.1c2.1-3.4,5.2-6.1,8.8-7.9"/>
<path id="Stroke-87" class="st2" d="M491.1,70.1c3.5-2.7,8.2-3.3,12.2-1.6c0.1-2.3,0.6-4.6,1.4-6.7"/>
<path id="Stroke-88" class="st2" d="M525.2,91.1h-26.8c-6.6,0-11.9-5.2-11.9-11.8"/>
<path id="Stroke-89" class="st2" d="M535.9,91.1h-6.6"/>
<path id="Fill-95" class="st5" d="M465,198.1h-38.6c-6,0-10.9-4.8-10.9-10.8c0,0,0,0,0,0v-67.2c0-6,4.9-10.8,10.9-10.8c0,0,0,0,0,0
	H465c6,0,10.9,4.8,10.9,10.8v67.2C475.9,193.3,471,198.2,465,198.1C465,198.1,465,198.1,465,198.1"/>
<path id="Stroke-96" class="st2" d="M465,198.1h-38.6c-6,0-10.9-4.8-10.9-10.8c0,0,0,0,0,0v-67.2c0-6,4.9-10.8,10.9-10.8
	c0,0,0,0,0,0H465c6,0,10.9,4.8,10.9,10.8v67.2C475.9,193.3,471,198.2,465,198.1C465,198.1,465,198.1,465,198.1z"/>
<path id="Fill-97" class="st7" d="M419.7,182.8h52.1v-58h-52.1V182.8z"/>
<path id="Stroke-98" class="st2" d="M419.7,182.8h52.1v-58h-52.1V182.8z"/>
<path id="Fill-99" class="st4" d="M441.8,190.6c0-2.1,1.7-3.9,3.8-3.9s3.9,1.7,3.9,3.8c0,2.1-1.7,3.9-3.8,3.9c0,0,0,0-0.1,0
	C443.6,194.4,441.8,192.7,441.8,190.6"/>
<path id="Stroke-100" class="st2" d="M441.8,190.6c0-2.1,1.7-3.9,3.8-3.9s3.9,1.7,3.9,3.8c0,2.1-1.7,3.9-3.8,3.9c0,0,0,0-0.1,0
	C443.6,194.4,441.8,192.7,441.8,190.6z"/>
<path id="Fill-101" class="st10" d="M457.5,117.6c0-0.8,0.7-1.5,1.5-1.5c0.8,0,1.5,0.7,1.5,1.5s-0.7,1.5-1.5,1.5c0,0,0,0,0,0
	C458.2,119.1,457.5,118.5,457.5,117.6"/>
<path id="Stroke-102" class="st2" d="M457.5,117.6c0-0.8,0.7-1.5,1.5-1.5c0.8,0,1.5,0.7,1.5,1.5s-0.7,1.5-1.5,1.5c0,0,0,0,0,0
	C458.2,119.1,457.5,118.5,457.5,117.6z"/>
<path id="Fill-103" class="st3" d="M438,120.1h15.4v-4.9H438V120.1z"/>
<path id="Stroke-104" class="st2" d="M438,120.1h15.4v-4.9H438V120.1z"/>
<path id="Stroke-105" class="st2" d="M435.1,157.4l7.4-7.3"/>
<path id="Stroke-106" class="st2" d="M449,157.4l7.4-7.3"/>
<path id="Stroke-107" class="st2" d="M439.1,160.3l13.3-13.1"/>
<path id="Stroke-124" class="st2" d="M543,133.6c0-2.5,1.9-4.5,4.4-4.5c2.5,0,4.5,1.9,4.5,4.4c0,2.5-1.9,4.5-4.4,4.5c0,0,0,0-0.1,0
	C545,138,543,136,543,133.6C543,133.6,543,133.6,543,133.6z"/>
<path id="Stroke-125" class="st2" d="M516.2,257.2c0-2.5,1.9-4.5,4.4-4.5s4.5,1.9,4.5,4.4c0,2.5-1.9,4.5-4.4,4.5c0,0,0,0-0.1,0
	C518.3,261.7,516.3,259.7,516.2,257.2z"/>
<path id="Stroke-131" class="st9" d="M715.3,226.2c0-2.5,1.9-4.5,4.4-4.5c2.5,0,4.5,1.9,4.5,4.4c0,2.5-1.9,4.5-4.4,4.5
	c0,0,0,0-0.1,0C717.4,230.7,715.3,228.7,715.3,226.2z"/>
<path id="Stroke-14" class="st2" d="M567.6,23.6h342.4"/>
<path id="Stroke-132" class="st2" d="M558.2,23.6c0-2.5,1.9-4.5,4.4-4.5c2.5,0,4.5,1.9,4.5,4.4c0,2.5-1.9,4.5-4.4,4.5c0,0,0,0-0.1,0
	C560.2,28.1,558.2,26.1,558.2,23.6z"/>
<path id="Stroke-133" class="st2" d="M779.2,209.1c0-2.5,1.9-4.5,4.4-4.5c2.5,0,4.5,1.9,4.5,4.4c0,2.5-1.9,4.5-4.4,4.5
	c0,0,0,0-0.1,0C781.2,213.6,779.2,211.6,779.2,209.1C779.2,209.1,779.2,209.1,779.2,209.1z"/>
<path id="Stroke-134" class="st2" d="M338.5,203.8l-5.4,5.3"/>
<path id="Stroke-135" class="st2" d="M338.5,209.1l-5.4-5.3"/>
<path id="Fill-190" class="st5" d="M656.4,202.4l-59.1,0.1L587,192.4V105h69.4L656.4,202.4z"/>
<path id="Stroke-191" class="st2" d="M656.4,202.4l-59.1,0.1L587,192.4V105h69.4L656.4,202.4z"/>
<path id="Fill-192" class="st8" d="M587,192.4l10.3,10.2v-10.2H587z"/>
<path id="Stroke-193" class="st2" d="M587,192.4l10.3,10.2v-10.2H587z"/>
<path id="Stroke-194" class="st2" d="M602.1,117h19.6"/>
<path id="Stroke-195" class="st2" d="M602.1,120.8h19.6"/>
<path id="Stroke-196" class="st2" d="M602.1,124.5h19.6"/>
<path id="Stroke-197" class="st2" d="M602.1,128.3h19.6"/>
<path id="Stroke-198" class="st2" d="M602.1,138h40.2"/>
<path id="Stroke-199" class="st2" d="M602.1,142.4h40.2"/>
<path id="Stroke-200" class="st2" d="M602.1,146.9h40.2"/>
<path id="Stroke-201" class="st2" d="M602.1,169h40.2"/>
<path id="Stroke-202" class="st2" d="M602.1,173.4h40.2"/>
<path id="Stroke-203" class="st2" d="M602.1,177.8h40.2"/>
<g>
	<path id="Fill-204" class="st11" d="M602.1,157.1c0-3.3,2.6-6,5.9-6.1s6,2.6,6.1,5.9s-2.6,6-5.9,6.1c0,0-0.1,0-0.1,0
		C604.8,163,602.1,160.3,602.1,157.1"/>
	<path id="Stroke-205" class="st2" d="M602.1,157.1c0-3.3,2.6-6,5.9-6.1s6,2.6,6.1,5.9s-2.6,6-5.9,6.1c0,0-0.1,0-0.1,0
		C604.8,163,602.1,160.3,602.1,157.1z"/>
	<path id="Fill-206" class="st12" d="M634.4,157.1c0-2.2,1.7-4,3.9-4c2.2,0,4,1.7,4,3.9c0,2.2-1.7,4-3.9,4c0,0,0,0,0,0
		C636.2,161,634.4,159.2,634.4,157.1C634.4,157.1,634.4,157.1,634.4,157.1"/>
	<path id="Stroke-207" class="st2" d="M634.4,157.1c0-2.2,1.7-4,3.9-4c2.2,0,4,1.7,4,3.9c0,2.2-1.7,4-3.9,4c0,0,0,0,0,0
		C636.2,161,634.4,159.2,634.4,157.1C634.4,157.1,634.4,157.1,634.4,157.1z"/>
	<path id="Fill-208" class="st13" d="M618.9,162.5l5.7-9.9l5.7,9.9H618.9z"/>
	<path id="Stroke-209" class="st2" d="M618.9,162.5l5.7-9.9l5.7,9.9H618.9z"/>
</g>
<path id="Fill-210" class="st7" d="M663.6,128.6l6.2-0.1l0.4,49.3l-6.2,0L663.6,128.6z"/>
<path id="Stroke-211" class="st2" d="M663.6,128.6l6.2-0.1l0.4,49.3l-6.2,0L663.6,128.6z"/>
<path id="Fill-212" class="st12" d="M670.2,177.9l-3.1,6.7L664,178L670.2,177.9z"/>
<path id="Stroke-213" class="st2" d="M670.2,177.9l-3.1,6.7L664,178L670.2,177.9z"/>
<path id="Fill-214" class="st10" d="M668.4,182l-2.5,0l1.3,2.6L668.4,182z"/>
<path id="Stroke-215" class="st2" d="M668.4,182l-2.5,0l1.3,2.6L668.4,182z"/>
<path id="Stroke-216" class="st2" d="M666.7,128.6l0.4,49.3"/>
<path id="Fill-217" class="st3" d="M663.5,125.9l6.2-0.1l0,2.8l-6.2,0.1L663.5,125.9z"/>
<path id="Stroke-218" class="st2" d="M663.5,125.9l6.2-0.1l0,2.8l-6.2,0.1L663.5,125.9z"/>
<path id="Fill-219" class="st4" d="M663.5,120.6l6.2-0.1l0,5.2l-6.2,0.1L663.5,120.6z"/>
<path id="Stroke-220" class="st2" d="M663.5,120.6l6.2-0.1l0,5.2l-6.2,0.1L663.5,120.6z"/>
<path id="Stroke-5" class="st2" d="M1,20.3h38.6"/>
</svg>
