<?xml version="1.0" encoding="utf-8"?>
<!-- Generator: Adobe Illustrator 21.0.1, SVG Export Plug-In . SVG Version: 6.00 Build 0)  -->
<svg version="1.1" id="Layer_1" xmlns="http://www.w3.org/2000/svg" xmlns:xlink="http://www.w3.org/1999/xlink" x="0px" y="0px"
	 viewBox="0 0 485 485" style="enable-background:new 0 0 485 485;" xml:space="preserve">
<style type="text/css">
	.st0{display:none;}
</style>
<g>
	<path class="st0" d="M321.3,328.4c-16.3,0-37.1-7.3-47.2-13.3l-9.7,39.2c13.3,7.3,33.9,12.3,56.9,12.3c50.4,0,76.4-24.1,76.4-57
		c-0.4-25.9-14.4-42.9-47.9-54.3c-21.5-7.6-28.3-12-28.3-20.2c0-9,7.5-14.4,20.8-14.4c15.1,0,30.2,5.8,38.2,10.1l9.7-37.8
		c-10.8-5.4-29.2-10.1-49.8-10.1c-43.6,0-71.7,24.9-71.7,57.6c-0.4,20.9,13.7,40.8,50.1,53c20.4,6.9,25.9,11.2,25.9,20.2
		C344.7,322.6,337.8,328.4,321.3,328.4z"/>
	<path class="st0" d="M141.7,276.2c5,0.7,11.6,1,18.7,1c32.4,0,60.2-7.9,78.8-25.5c14.5-13.7,22.4-33.9,22.4-57.6
		c0-23.8-10.3-44-26-56.2c-16.1-13.1-40.3-19.5-74.2-19.5c-33.5,0-57.3,2.2-74.1,5V363h54.3L141.7,276.2L141.7,276.2z M141.8,162
		c3.8-1.1,11.5-2.2,22.5-2.2c27.5,0,42.9,13.3,43,35.6c0,24.9-18.1,39.7-47.3,39.7c-7.9,0-13.6-0.3-18.3-1.4L141.8,162L141.8,162z"
		/>
	<path d="M0,0v485h485V0H0z M455,455H30V30h425V455z"/>
</g>
<g>
	<path d="M379.3,203.1c-43.8,53.3-87.5,106.6-131.4,159.9c-3.9,4.7-7,4.7-10.9,0c-43.8-53.3-87.6-106.6-131.3-159.9
		c0-1.2,0-2.4,0-3.6c0.5-0.6,1.1-1.1,1.6-1.7c16.4-23.6,32.9-47.2,49.1-70.9c2.4-3.6,5.2-5.1,9.5-5.2c9.1-0.3,18.2-1.3,27.3-1.9
		c18-1.1,36-3.1,53.9-2.8c23,0.5,46,3.3,69.1,4.4c6.6,0.3,10.6,2.4,14.3,7.9c16,23.6,32.5,46.8,48.9,70.2
		C379.3,200.7,379.3,201.9,379.3,203.1z M242.5,349.6c25.6-47.8,50.8-94.9,76.2-142.3c-51.3,0-101.4,0-152.4,0
		C191.8,254.9,216.9,301.8,242.5,349.6z M242.5,129.3c-23.7,22.2-47,43.9-71,66.3c47.8,0,94.4,0,142,0
		C289.5,173.1,266.3,151.5,242.5,129.3z M122.9,206.9c29,35.3,56.9,69.3,85.1,103.6c0.4-0.7,0.6-0.9,0.6-1
		c-17.8-33.3-35.6-66.6-53.5-99.9c-0.6-1.2-2.3-2.6-3.6-2.6C142.5,206.8,133.5,206.9,122.9,206.9z M276.3,309.7
		c0.3,0.2,0.6,0.4,0.9,0.6c28-34.1,56-68.2,84.9-103.5c-9.2,0-16.8,0.3-24.3-0.1c-4.6-0.2-7.2,1.2-9.5,5.4
		c-11.9,22.7-24.1,45.3-36.2,67.9C286.8,289.9,281.6,299.8,276.3,309.7z M163.7,186c0.5,0.2,1,0.3,1.5,0.5
		c20.3-19,40.6-37.9,60.9-56.9c-0.2-0.4-0.4-0.8-0.6-1.2c-19.2,1.4-38.4,2.8-57.7,4.2C166.4,151,165,168.5,163.7,186z M259.6,128.4
		c-0.2,0.4-0.3,0.8-0.5,1.3c20.3,19,40.7,37.9,62.4,58.3c-1.5-19.7-2.9-37.5-4.3-55.4C297.5,131.1,278.5,129.8,259.6,128.4z
		 M122.3,195.4c10.3,0,19.8,0,29.7,0c1.2-15.5,2.4-30.6,3.6-45.7c-0.4-0.1-0.8-0.3-1.2-0.4C143.8,164.4,133.3,179.5,122.3,195.4z
		 M362.9,195.7c-11.2-16.2-21.8-31.4-32.3-46.5c-0.4,0.2-0.8,0.4-1.2,0.7c1.2,15.2,2.4,30.4,3.7,45.9
		C343,195.7,352.4,195.7,362.9,195.7z"/>
</g>
</svg>
